<?xml version="1.0" encoding="UTF-8"?>
<svg width="200px" height="200px" viewBox="0 0 200 200" version="1.1" xmlns="http://www.w3.org/2000/svg" xmlns:xlink="http://www.w3.org/1999/xlink">
    <title>小龙</title>
    <g id="dragon" stroke="none" stroke-width="1" fill="none" fill-rule="evenodd">
        <!-- 小龙身体 - 可以通过fill属性更改颜色 -->
        <path id="body" fill="#5CB85C" d="M60,100 C60,80 80,70 100,70 C120,70 140,80 140,100 C140,120 120,140 100,140 C80,140 60,120 60,100 Z"></path>
        
        <!-- 小龙头部 -->
        <circle id="head" fill="#5CB85C" cx="100" cy="60" r="30"></circle>
        
        <!-- 小龙角 -->
        <path d="M85,40 L70,10 L90,35 Z" id="left-horn" fill="#5CB85C"></path>
        <path d="M115,40 L130,10 L110,35 Z" id="right-horn" fill="#5CB85C"></path>
        
        <!-- 小龙眼睛 -->
        <ellipse id="left-eye" fill="#FFFFFF" cx="85" cy="55" rx="7" ry="9"></ellipse>
        <ellipse id="right-eye" fill="#FFFFFF" cx="115" cy="55" rx="7" ry="9"></ellipse>
        <ellipse id="left-pupil" fill="#FF9900" cx="85" cy="55" rx="3" ry="4"></ellipse>
        <ellipse id="right-pupil" fill="#FF9900" cx="115" cy="55" rx="3" ry="4"></ellipse>
        
        <!-- 小龙鼻子 -->
        <path d="M100,65 L95,75 L105,75 Z" id="nose" fill="#FF6B6B"></path>
        
        <!-- 小龙嘴巴 -->
        <path d="M95,75 Q100,80 105,75" id="mouth" stroke="#000000" stroke-width="1.5" fill="none"></path>
        
        <!-- 小龙翅膀 -->
        <path d="M60,90 C40,70 30,80 40,100 C30,120 40,130 60,110" id="left-wing" fill="#5CB85C" stroke="#000000" stroke-width="1"></path>
        <path d="M140,90 C160,70 170,80 160,100 C170,120 160,130 140,110" id="right-wing" fill="#5CB85C" stroke="#000000" stroke-width="1"></path>
        
        <!-- 小龙尾巴 -->
        <path d="M100,140 C90,160 80,170 70,180 C60,190 50,180 60,170 C70,160 80,150 100,140" id="tail" fill="#5CB85C"></path>
        
        <!-- 小龙尾巴尖 -->
        <path d="M60,170 L50,180 L65,175 Z" id="tail-tip" fill="#FF6B6B"></path>
        
        <!-- 小龙火焰 -->
        <path d="M100,75 C105,70 110,65 115,70 C120,75 115,80 110,75 C105,70 100,75 100,75" id="fire" fill="#FF9900" opacity="0.8"></path>
    </g>
</svg> 