<svg width="40" height="40" viewBox="0 0 40 40" fill="none" xmlns="http://www.w3.org/2000/svg">
  <rect width="40" height="40" rx="8" fill="#FFFFFF"/>
  <path d="M20 10C14.477 10 10 14.477 10 20C10 25.523 14.477 30 20 30C25.523 30 30 25.523 30 20C30 14.477 25.523 10 20 10ZM20 28C15.582 28 12 24.418 12 20C12 15.582 15.582 12 20 12C24.418 12 28 15.582 28 20C28 24.418 24.418 28 20 28Z" fill="#5E8C61"/>
  <path d="M24.95 15.05C24.76 14.86 24.51 14.75 24.24 14.75C23.97 14.75 23.72 14.86 23.53 15.05L20 18.59L16.47 15.05C16.28 14.86 16.03 14.75 15.76 14.75C15.49 14.75 15.24 14.86 15.05 15.05C14.66 15.44 14.66 16.07 15.05 16.46L19.29 20.7C19.48 20.89 19.73 21 20 21C20.27 21 20.52 20.89 20.71 20.7L24.95 16.46C25.34 16.07 25.34 15.44 24.95 15.05Z" fill="#5E8C61"/>
  <path d="M15.05 23.54C15.24 23.73 15.49 23.84 15.76 23.84C16.03 23.84 16.28 23.73 16.47 23.54L20 20L23.53 23.54C23.72 23.73 23.97 23.84 24.24 23.84C24.51 23.84 24.76 23.73 24.95 23.54C25.34 23.15 25.34 22.52 24.95 22.13L20.71 17.89C20.52 17.7 20.27 17.59 20 17.59C19.73 17.59 19.48 17.7 19.29 17.89L15.05 22.13C14.66 22.52 14.66 23.15 15.05 23.54Z" fill="#5E8C61"/>
</svg> 